<svg xmlns="http://www.w3.org/2000/svg" viewBox="0 0 400 160">
    <defs>
          <linearGradient id="navyGrad" x1="0%" y1="0%" x2="100%" y2="100%">
                  <stop offset="0%" style="stop-color:#1a3a6b;stop-opacity:1" />
                  <stop offset="100%" style="stop-color:#2c5aa0;stop-opacity:1" />
          </linearGradient>
          <linearGradient id="accentGrad" x1="0%" y1="0%" x2="100%" y2="100%">
                  <stop offset="0%" style="stop-color:#4a90d9;stop-opacity:1" />
                  <stop offset="100%" style="stop-color:#6fa8dc;stop-opacity:1" />
          </linearGradient>
          <filter id="glow">
                  <feGaussianBlur stdDeviation="2" result="coloredBlur"/>
                  <feMerge>
                            <feMergeNode in="coloredBlur"/>
                            <feMergeNode in="SourceGraphic"/>
                  </feMerge>
          </filter>
          <filter id="shadow" x="-20%" y="-20%" width="140%" height="140%">
                  <feDropShadow dx="0" dy="2" stdDeviation="3" flood-color="#1a3a6b" flood-opacity="0.2"/>
          </filter>
    </defs>
    <rect x="8" y="20" width="120" height="120" rx="24" fill="url(#navyGrad)" filter="url(#shadow)"/>
    <circle cx="68" cy="80" r="38" fill="none" stroke="rgba(255,255,255,0.15)" stroke-width="1.5"/>
    <ellipse cx="68" cy="80" rx="38" ry="16" fill="none" stroke="rgba(255,255,255,0.15)" stroke-width="1.5"/>
    <ellipse cx="68" cy="80" rx="16" ry="38" fill="none" stroke="rgba(255,255,255,0.15)" stroke-width="1.5"/>
    <path d="M 34 72 Q 68 32 102 72" fill="none" stroke="url(#accentGrad)" stroke-width="4" stroke-linecap="round" filter="url(#glow)"/>
    <path d="M 68 95 C 68 95 52 83 52 73 C 52 67 57 63 62.5 65 C 65 66 67 68 68 70 C 69 68 71 66 73.5 65 C 79 63 84 67 84 73 C 84 83 68 95 68 95 Z" fill="white" opacity="0.95" filter="url(#glow)"/>
    <circle cx="40" cy="54" r="2.5" fill="#6fa8dc" opacity="0.8"/>
    <circle cx="96" cy="54" r="2.5" fill="#6fa8dc" opacity="0.8"/>
    <circle cx="31" cy="90" r="1.8" fill="#6fa8dc" opacity="0.6"/>
    <circle cx="105" cy="90" r="1.8" fill="#6fa8dc" opacity="0.6"/>
    <text x="142" y="72" font-family="Georgia, serif" font-size="36" font-weight="400" fill="#1a3a6b" letter-spacing="-0.5">Culture</text>
    <text x="142" y="110" font-family="Georgia, serif" font-size="36" font-weight="700" font-style="italic" fill="#2c5aa0" letter-spacing="-0.5">Med</text>
    <text x="143" y="130" font-family="Arial, sans-serif" font-size="10" fill="#6fa8dc" letter-spacing="3">PFLEGEDIENST GMBH</text>
    <line x1="142" y1="118" x2="380" y2="118" stroke="#e0e8f0" stroke-width="0.8"/>
</svg>
